<svg width="114" height="26" viewBox="0 0 114 26" fill="none" xmlns="http://www.w3.org/2000/svg">
<path d="M66.1363 23.075C66.1363 23.27 66.2014 23.4 66.348 23.4C66.4457 23.4 66.5109 23.3512 66.6086 23.2862L102.128 0.89375C102.763 0.50375 103.333 0.2925 104.18 0.2925H111.997C113.186 0.2925 114 1.0725 114 2.2425V16.6888C114 18.4275 113.609 19.435 111.997 20.3613L102.519 25.8862C102.422 25.9527 102.31 25.992 102.193 26C102.095 26 101.997 25.9188 101.997 25.5938V8.72625C101.997 8.53125 101.932 8.40125 101.802 8.40125C101.704 8.40125 101.623 8.43375 101.525 8.49875L75.5494 24.8625C74.8329 25.3175 74.2466 25.4475 73.5626 25.4475H56.3486C55.1434 25.4475 54.3291 24.6675 54.3291 23.4975V2.6975C54.3291 2.535 54.2477 2.405 54.1337 2.405C54.036 2.405 53.9709 2.4375 53.8569 2.5025L36.7406 12.48C36.5614 12.5775 36.5126 12.675 36.5126 12.7563C36.5126 12.8213 36.5289 12.8862 36.6754 13L48.8897 24.8625C49.0526 25.0087 49.1829 25.1388 49.1829 25.2525C49.1829 25.3825 49.0037 25.4638 48.7757 25.4638H37.7177C36.8546 25.4638 36.1869 25.3337 35.7146 24.8787L28.2883 17.68C28.2069 17.5987 28.158 17.5662 28.0766 17.5662C28.0114 17.5662 27.9137 17.5988 27.8323 17.6313L15.4389 24.8787C14.6897 25.3175 14.1686 25.4475 13.4194 25.4475H2.01943C0.814286 25.4475 0 24.6675 0 23.4975V9.31125C0 7.55625 0.390857 6.565 2.00314 5.63875L11.5303 0.0812503C11.6076 0.030012 11.698 0.00182795 11.7909 0C11.9374 0 12.0026 0.1625 12.0026 0.455V19.435C12.0026 19.63 12.0677 19.7275 12.198 19.7275C12.2794 19.7275 12.3771 19.6625 12.4749 19.5975L44.6717 0.845001C45.4371 0.406251 45.9094 0.26 46.7889 0.26H64.1169C65.322 0.26 66.12 1.05625 66.12 2.21L66.1363 23.0588V23.075Z" fill="white"/>
</svg>
